<svg width="14" height="14" viewBox="0 0 14 14" fill="none" xmlns="http://www.w3.org/2000/svg">
<path fill-rule="evenodd" clip-rule="evenodd" d="M7.84055 0.105659C7.58335 -3.10746e-08 7.25664 0 6.60392 0C5.9512 0 5.62449 -3.10746e-08 5.36729 0.105659C5.02491 0.246221 4.75237 0.517011 4.6096 0.858481C4.54426 1.01349 4.51924 1.19492 4.50881 1.45838C4.50417 1.64926 4.45093 1.83581 4.35411 2.00038C4.25729 2.16495 4.12009 2.30211 3.95549 2.39888C3.78779 2.4921 3.59927 2.54148 3.4074 2.54246C3.21553 2.54343 3.02652 2.49596 2.85788 2.40444C2.62293 2.28071 2.45263 2.21259 2.2844 2.19034C1.91637 2.14202 1.54415 2.24095 1.24867 2.46561C1.02762 2.63383 0.864261 2.91466 0.538247 3.47563C0.211538 4.0366 0.0488782 4.31673 0.0120365 4.59131C-0.0366224 4.95695 0.0634759 5.32675 0.290087 5.6194C0.392966 5.75287 0.538247 5.86478 0.762773 6.0052C1.09435 6.21165 1.30706 6.56338 1.30706 6.95126C1.30706 7.33914 1.09435 7.69088 0.763468 7.89664C0.538247 8.03775 0.392966 8.14966 0.289392 8.28313C0.177534 8.42767 0.0954303 8.59295 0.0478246 8.76941C0.000218889 8.94588 -0.0119448 9.13003 0.0120365 9.31122C0.0488782 9.5851 0.211538 9.86593 0.538247 10.4269C0.864957 10.9879 1.02762 11.268 1.24867 11.4369C1.5434 11.6614 1.91599 11.7601 2.2844 11.7122C2.45263 11.6899 2.62293 11.6218 2.85788 11.4981C3.02661 11.4064 3.21575 11.3589 3.40775 11.3599C3.59975 11.3609 3.7884 11.4103 3.95618 11.5036C4.29402 11.6983 4.49421 12.0563 4.50881 12.4442C4.51924 12.7083 4.54426 12.889 4.6096 13.044C4.75141 13.3847 5.0239 13.6558 5.36729 13.7969C5.62449 13.9025 5.9512 13.9025 6.60392 13.9025C7.25664 13.9025 7.58335 13.9025 7.84055 13.7969C8.18293 13.6563 8.45547 13.3855 8.59824 13.044C8.66358 12.889 8.6886 12.7083 8.69903 12.4442C8.71293 12.0563 8.91383 11.6976 9.25235 11.5036C9.42005 11.4104 9.60857 11.361 9.80044 11.3601C9.99231 11.3591 10.1813 11.4066 10.35 11.4981C10.5849 11.6218 10.7552 11.6899 10.9234 11.7122C11.2919 11.7608 11.6644 11.6614 11.9592 11.4369C12.1802 11.2687 12.3436 10.9879 12.6696 10.4269C12.9963 9.86593 13.159 9.58579 13.1958 9.31122C13.2197 9.12998 13.2074 8.94581 13.1597 8.76934C13.112 8.59288 13.0297 8.42762 12.9178 8.28313C12.8149 8.14966 12.6696 8.03775 12.4451 7.89733C12.1135 7.69088 11.9008 7.33914 11.9008 6.95126C11.9008 6.56338 12.1135 6.21165 12.4444 6.00589C12.6696 5.86478 12.8149 5.75287 12.9184 5.6194C13.0303 5.47486 13.1124 5.30958 13.16 5.13311C13.2076 4.95665 13.2198 4.7725 13.1958 4.59131C13.159 4.31743 12.9963 4.0366 12.6696 3.47563C12.3429 2.91466 12.1802 2.63453 11.9592 2.46561C11.6637 2.24095 11.2915 2.14202 10.9234 2.19034C10.7552 2.21259 10.5849 2.28071 10.35 2.40444C10.1812 2.49608 9.99209 2.54362 9.80009 2.54265C9.60809 2.54167 9.41945 2.49222 9.25166 2.39888C9.08719 2.30202 8.95013 2.16483 8.85343 2.00026C8.75674 1.8357 8.70359 1.64919 8.69903 1.45838C8.6886 1.19423 8.66358 1.01349 8.59824 0.858481C8.52758 0.689382 8.4243 0.535861 8.29429 0.406689C8.16428 0.277517 8.0101 0.175226 7.84055 0.105659ZM6.60392 9.03664C7.76478 9.03664 8.70529 8.10309 8.70529 6.95126C8.70529 5.79944 7.76409 4.86588 6.60392 4.86588C5.44306 4.86588 4.50255 5.79944 4.50255 6.95126C4.50255 8.10309 5.44375 9.03664 6.60392 9.03664Z" fill="#676F82"/>
</svg>
