<svg width="33" height="26" viewBox="0 0 33 26" fill="none" xmlns="http://www.w3.org/2000/svg">
<g clip-path="url(#clip0_13_4976)">
<path d="M5.62976 11.375C7.3893 11.375 8.81987 9.91758 8.81987 8.125C8.81987 6.33242 7.3893 4.875 5.62976 4.875C3.87022 4.875 2.43966 6.33242 2.43966 8.125C2.43966 9.91758 3.87022 11.375 5.62976 11.375ZM27.9605 11.375C29.72 11.375 31.1506 9.91758 31.1506 8.125C31.1506 6.33242 29.72 4.875 27.9605 4.875C26.2009 4.875 24.7704 6.33242 24.7704 8.125C24.7704 9.91758 26.2009 11.375 27.9605 11.375ZM29.5555 13H26.3654C25.4882 13 24.6956 13.3605 24.1174 13.9445C26.1262 15.0668 27.5518 17.093 27.8608 19.5H31.1506C32.0329 19.5 32.7456 18.7738 32.7456 17.875V16.25C32.7456 14.4574 31.3151 13 29.5555 13ZM16.7951 13C19.8806 13 22.3778 10.4559 22.3778 7.3125C22.3778 4.16914 19.8806 1.625 16.7951 1.625C13.7097 1.625 11.2124 4.16914 11.2124 7.3125C11.2124 10.4559 13.7097 13 16.7951 13ZM20.6232 14.625H20.2095C19.1728 15.1328 18.0213 15.4375 16.7951 15.4375C15.5689 15.4375 14.4225 15.1328 13.3807 14.625H12.967C9.79683 14.625 7.22481 17.2453 7.22481 20.475V21.9375C7.22481 23.2832 8.29649 24.375 9.61739 24.375H23.9729C25.2938 24.375 26.3654 23.2832 26.3654 21.9375V20.475C26.3654 17.2453 23.7934 14.625 20.6232 14.625ZM9.47284 13.9445C8.89463 13.3605 8.10209 13 7.22481 13H4.03471C2.27517 13 0.844604 14.4574 0.844604 16.25V17.875C0.844604 18.7738 1.55739 19.5 2.43966 19.5H5.72447C6.03849 17.093 7.46407 15.0668 9.47284 13.9445Z" fill="#2F327D"/>
</g>
<defs>
<clipPath id="clip0_13_4976">
<rect width="31.901" height="26" fill="white" transform="translate(0.844604)"/>
</clipPath>
</defs>
</svg>
